<svg width="62" height="62" viewBox="0 0 62 62" fill="none" xmlns="http://www.w3.org/2000/svg">
<g filter="url(#filter0_b_914_35993)">
<path d="M0 10C0 4.47715 4.47715 0 10 0H52C57.5228 0 62 4.47715 62 10V52C62 57.5228 57.5228 62 52 62H10C4.47715 62 0 57.5228 0 52V10Z" fill="url(#paint0_linear_914_35993)"/>
<path d="M0.25 10C0.25 4.61523 4.61522 0.25 10 0.25H52C57.3848 0.25 61.75 4.61522 61.75 10V52C61.75 57.3848 57.3848 61.75 52 61.75H10C4.61523 61.75 0.25 57.3848 0.25 52V10Z" stroke="url(#paint1_radial_914_35993)" stroke-width="0.5"/>
<path d="M46.2605 31.9789C46.2605 30.9078 46.1568 29.8022 45.9841 28.7656H31.0232V34.8813H39.592C39.2465 36.8507 38.1063 38.5783 36.4133 39.684L41.5269 43.6574C44.5329 40.8587 46.2605 36.7816 46.2605 31.9789Z" fill="white"/>
<path d="M31.0258 47.458C35.3102 47.458 38.9036 46.0414 41.5295 43.6228L36.4159 39.6839C34.9992 40.6514 33.168 41.2042 31.0258 41.2042C26.8796 41.2042 23.3899 38.4055 22.1115 34.6739L16.8596 38.7165C19.5547 44.072 25.0138 47.458 31.0258 47.458Z" fill="white"/>
<path d="M22.1101 34.6394C21.4536 32.67 21.4536 30.5278 22.1101 28.5583L16.8582 24.4812C14.6124 28.9729 14.6124 34.2594 16.8582 38.7165L22.1101 34.6394Z" fill="white"/>
<path d="M31.0258 22.0281C33.2717 21.9936 35.483 22.8574 37.1069 24.4122L41.6332 19.8514C38.7654 17.1564 34.9647 15.7052 31.0258 15.7397C25.0138 15.7397 19.5547 19.1258 16.8596 24.4813L22.1115 28.5584C23.3899 24.7923 26.8796 22.0281 31.0258 22.0281Z" fill="white"/>
</g>
<defs>
<filter id="filter0_b_914_35993" x="-30" y="-30" width="122" height="122" filterUnits="userSpaceOnUse" color-interpolation-filters="sRGB">
<feFlood flood-opacity="0" result="BackgroundImageFix"/>
<feGaussianBlur in="BackgroundImageFix" stdDeviation="15"/>
<feComposite in2="SourceAlpha" operator="in" result="effect1_backgroundBlur_914_35993"/>
<feBlend mode="normal" in="SourceGraphic" in2="effect1_backgroundBlur_914_35993" result="shape"/>
</filter>
<linearGradient id="paint0_linear_914_35993" x1="58" y1="58.5" x2="0" y2="0" gradientUnits="userSpaceOnUse">
<stop stop-color="white" stop-opacity="0.3"/>
<stop offset="1" stop-color="white" stop-opacity="0.1"/>
</linearGradient>
<radialGradient id="paint1_radial_914_35993" cx="0" cy="0" r="1" gradientUnits="userSpaceOnUse" gradientTransform="translate(5 38.5) rotate(-74.0546) scale(40.0406)">
<stop stop-color="white"/>
<stop offset="1" stop-color="white" stop-opacity="0"/>
</radialGradient>
</defs>
</svg>
