<svg width="106" height="30" viewBox="0 0 106 30" fill="none" xmlns="http://www.w3.org/2000/svg">
<rect y="5.25" width="16.9788" height="3.2122" fill="#006B3D"/>
<rect x="4.13037" y="9.37988" width="12.8488" height="3.2122" fill="#3CDA73"/>
<rect x="7.80127" y="13.51" width="9.17771" height="3.2122" fill="#FFCA2D"/>
<rect x="10.5544" y="17.6399" width="6.4244" height="3.2122" fill="#FF7A49"/>
<rect x="13.1494" y="21.7183" width="3.8298" height="3.31916" fill="#FF2A3A"/>
<path d="M24.224 22V7.96571H33.5333V10.6801H27.2802V13.5553H32.6084V16.2496H27.2802V22H24.224ZM37.3125 10.3182C36.7093 10.3182 36.2669 10.1841 35.9855 9.91603C35.7174 9.63454 35.5833 9.27933 35.5833 8.85039V8.40805C35.5833 7.97911 35.7174 7.6306 35.9855 7.36251C36.2669 7.08102 36.7093 6.94028 37.3125 6.94028C37.9157 6.94028 38.3513 7.08102 38.6194 7.36251C38.9009 7.6306 39.0416 7.97911 39.0416 8.40805V8.85039C39.0416 9.27933 38.9009 9.63454 38.6194 9.91603C38.3513 10.1841 37.9157 10.3182 37.3125 10.3182ZM35.8246 11.4441H38.8004V22H35.8246V11.4441ZM41.5777 22V11.4441H44.5535V13.2336H44.6741C44.8618 12.684 45.1902 12.2082 45.6593 11.806C46.1285 11.4039 46.7786 11.2028 47.6096 11.2028C48.6954 11.2028 49.5131 11.5648 50.0626 12.2886C50.6256 13.0124 50.9071 14.0446 50.9071 15.385V22H47.9314V15.6263C47.9314 14.9426 47.8241 14.44 47.6096 14.1183C47.3952 13.7832 47.0132 13.6156 46.4636 13.6156C46.2223 13.6156 45.9877 13.6491 45.7599 13.7161C45.532 13.7698 45.3242 13.8636 45.1366 13.9976C44.9623 14.1317 44.8216 14.2992 44.7143 14.5003C44.6071 14.688 44.5535 14.9091 44.5535 15.1638V22H41.5777ZM53.5552 22V11.4441H56.5309V13.7363H56.6315C56.6851 13.4414 56.7789 13.1599 56.913 12.8918C57.047 12.6103 57.2213 12.3623 57.4357 12.1478C57.6636 11.9334 57.9317 11.7658 58.24 11.6452C58.5483 11.5111 58.9102 11.4441 59.3257 11.4441H59.8485V14.2188H59.1046C58.2333 14.2188 57.5832 14.3327 57.1542 14.5606C56.7387 14.7885 56.5309 15.2107 56.5309 15.8273V22H53.5552ZM69.2106 22C68.6744 22 68.2253 21.8324 67.8634 21.4973C67.5149 21.1622 67.2937 20.7132 67.1999 20.1502H67.0793C66.9184 20.8338 66.5632 21.3566 66.0136 21.7185C65.4641 22.067 64.7871 22.2413 63.9829 22.2413C62.9239 22.2413 62.113 21.9598 61.55 21.3968C60.987 20.8338 60.7055 20.0899 60.7055 19.165C60.7055 18.0524 61.1077 17.2281 61.9119 16.6919C62.7296 16.1423 63.8354 15.8675 65.2295 15.8675H66.8983V15.204C66.8983 14.6947 66.7643 14.2925 66.4962 13.9976C66.2281 13.6893 65.7791 13.5352 65.1491 13.5352C64.5593 13.5352 64.0901 13.6625 63.7416 13.9172C63.3931 14.1719 63.1049 14.4601 62.877 14.7818L61.1077 13.2135C61.5366 12.5835 62.0728 12.0942 62.7162 11.7457C63.373 11.3838 64.2577 11.2028 65.3702 11.2028C66.8715 11.2028 67.9975 11.5312 68.7481 12.1881C69.4988 12.8449 69.8741 13.8033 69.8741 15.0633V19.6878H70.8593V22H69.2106ZM65.0887 20.1703C65.5847 20.1703 66.0069 20.0631 66.3554 19.8486C66.7174 19.6341 66.8983 19.2856 66.8983 18.8031V17.5565H65.4507C64.2845 17.5565 63.7014 17.9519 63.7014 18.7428V19.0444C63.7014 19.4331 63.822 19.7213 64.0633 19.9089C64.3046 20.0832 64.6464 20.1703 65.0887 20.1703ZM72.8566 22V11.4441H75.8323V13.2336H75.953C76.1406 12.684 76.469 12.2082 76.9382 11.806C77.4073 11.4039 78.0574 11.2028 78.8885 11.2028C79.9743 11.2028 80.7919 11.5648 81.3415 12.2886C81.9045 13.0124 82.186 14.0446 82.186 15.385V22H79.2102V15.6263C79.2102 14.9426 79.103 14.44 78.8885 14.1183C78.674 13.7832 78.292 13.6156 77.7424 13.6156C77.5012 13.6156 77.2666 13.6491 77.0387 13.7161C76.8108 13.7698 76.6031 13.8636 76.4154 13.9976C76.2412 14.1317 76.1004 14.2992 75.9932 14.5003C75.8859 14.688 75.8323 14.9091 75.8323 15.1638V22H72.8566ZM84.834 7.12124H87.8098V15.9077H87.9304L89.2374 13.9574L91.3485 11.4441H94.646L91.1274 15.4855L95.0481 22H91.5094L89.1368 17.5364L87.8098 19.0242V22H84.834V7.12124ZM99.821 22.2413C98.8023 22.2413 97.9444 22.0804 97.2474 21.7587C96.5504 21.4236 95.9271 20.9545 95.3775 20.3513L97.1268 18.5819C97.5021 18.9974 97.9176 19.3258 98.3734 19.5671C98.8291 19.8084 99.3452 19.929 99.9216 19.929C100.511 19.929 100.92 19.8419 101.148 19.6677C101.376 19.48 101.49 19.232 101.49 18.9237C101.49 18.4278 101.135 18.1329 100.424 18.039L99.2782 17.8983C96.9056 17.6034 95.7193 16.5176 95.7193 14.641C95.7193 14.1317 95.8132 13.6692 96.0008 13.2537C96.2019 12.8248 96.4767 12.4628 96.8252 12.168C97.1871 11.8597 97.616 11.6251 98.112 11.4642C98.6214 11.29 99.191 11.2028 99.821 11.2028C100.371 11.2028 100.853 11.2431 101.269 11.3235C101.698 11.3905 102.073 11.4977 102.395 11.6452C102.73 11.7792 103.031 11.9535 103.299 12.168C103.581 12.369 103.856 12.5969 104.124 12.8516L102.415 14.6008C102.08 14.2657 101.698 14.0043 101.269 13.8167C100.853 13.6156 100.424 13.5151 99.9819 13.5151C99.4725 13.5151 99.1106 13.5955 98.8961 13.7564C98.6817 13.9172 98.5744 14.1317 98.5744 14.3998C98.5744 14.6813 98.6482 14.9024 98.7956 15.0633C98.9565 15.2107 99.2514 15.318 99.6803 15.385L100.867 15.5458C103.186 15.8541 104.345 16.9131 104.345 18.7227C104.345 19.232 104.238 19.7012 104.023 20.1301C103.809 20.559 103.501 20.9344 103.098 21.2561C102.71 21.5644 102.234 21.8056 101.671 21.9799C101.121 22.1541 100.505 22.2413 99.821 22.2413Z" fill="white"/>
</svg>
