<svg width="12" height="12" viewBox="0 0 12 12" fill="none" xmlns="http://www.w3.org/2000/svg">
<path d="M10.7689 6.44818L6.32385 1.32541C6.28367 1.27905 6.234 1.24188 6.17819 1.2164C6.12239 1.19092 6.06176 1.17773 6.00042 1.17773C5.93907 1.17773 5.87844 1.19092 5.82264 1.2164C5.76683 1.24188 5.71716 1.27905 5.67698 1.32541L1.23323 6.44818C1.2198 6.46362 1.21109 6.48259 1.20814 6.50284C1.2052 6.52309 1.20813 6.54376 1.2166 6.56239C1.22507 6.58102 1.23871 6.59682 1.25591 6.60792C1.2731 6.61901 1.29312 6.62493 1.31359 6.62496H2.39841C2.46001 6.62496 2.51894 6.59818 2.56046 6.5513L5.49216 3.17228V10.7138C5.49216 10.7727 5.54037 10.8209 5.5993 10.8209H6.40287C6.4618 10.8209 6.51001 10.7727 6.51001 10.7138V3.17228L9.44171 6.5513C9.48189 6.59818 9.54082 6.62496 9.60376 6.62496H10.6886C10.7797 6.62496 10.8292 6.51782 10.7689 6.44818Z" fill="#52C41A"/>
</svg>
