<svg width="12" height="12" viewBox="0 0 12 12" fill="none" xmlns="http://www.w3.org/2000/svg">
<path d="M1.23106 5.55182L5.67615 10.6746C5.71633 10.7209 5.766 10.7581 5.82181 10.7836C5.87761 10.8091 5.93824 10.8223 5.99958 10.8223C6.06093 10.8223 6.12156 10.8091 6.17736 10.7836C6.23317 10.7581 6.28284 10.7209 6.32302 10.6746L10.7668 5.55182C10.7802 5.53638 10.7889 5.51741 10.7919 5.49716C10.7948 5.47691 10.7919 5.45624 10.7834 5.43761C10.7749 5.41898 10.7613 5.40318 10.7441 5.39208C10.7269 5.38099 10.7069 5.37507 10.6864 5.37504L9.60159 5.37504C9.53999 5.37504 9.48106 5.40182 9.43954 5.4487L6.50784 8.82772L6.50784 1.2862C6.50784 1.22727 6.45963 1.17905 6.4007 1.17905L5.59713 1.17905C5.5382 1.17905 5.48999 1.22727 5.48999 1.2862L5.48999 8.82772L2.55829 5.4487C2.51811 5.40182 2.45918 5.37504 2.39623 5.37504L1.31141 5.37504C1.22034 5.37504 1.17079 5.48218 1.23106 5.55182Z" fill="#FE2B3A"/>
</svg>
