<svg width="16" height="16" viewBox="0 0 16 16" fill="none" xmlns="http://www.w3.org/2000/svg">
<g clip-path="url(#clip0_801_17480)">
<path d="M15.3722 10.033L14.2026 9.03298C14.2579 8.69369 14.2865 8.34726 14.2865 8.00083C14.2865 7.6544 14.2579 7.30797 14.2026 6.96869L15.3722 5.96869C15.4604 5.89317 15.5236 5.79257 15.5532 5.68029C15.5829 5.56801 15.5777 5.44936 15.5383 5.34012L15.5222 5.29369C15.2002 4.39374 14.718 3.55947 14.099 2.83119L14.0669 2.79369C13.9918 2.70539 13.8917 2.64191 13.7798 2.61163C13.6679 2.58135 13.5494 2.58568 13.4401 2.62405L11.9883 3.14012C11.4526 2.70083 10.8544 2.3544 10.2079 2.11155L9.92757 0.593689C9.90642 0.479479 9.85102 0.374408 9.76872 0.292435C9.68643 0.210462 9.58115 0.155469 9.46686 0.13476L9.41864 0.125832C8.48829 -0.0420253 7.50971 -0.0420253 6.57936 0.125832L6.53114 0.13476C6.41685 0.155469 6.31156 0.210462 6.22927 0.292435C6.14698 0.374408 6.09158 0.479479 6.07043 0.593689L5.78828 2.11869C5.14701 2.3616 4.54983 2.70784 4.02043 3.14369L2.55793 2.62405C2.44858 2.58537 2.33005 2.58089 2.2181 2.61119C2.10614 2.64149 2.00606 2.70514 1.93114 2.79369L1.899 2.83119C1.28069 3.55998 0.798599 4.39411 0.475785 5.29369L0.459713 5.34012C0.379356 5.56333 0.445428 5.81333 0.625785 5.96869L1.80971 6.9794C1.75436 7.31512 1.72757 7.65797 1.72757 7.99905C1.72757 8.3419 1.75436 8.68476 1.80971 9.01869L0.625785 10.0294C0.537563 10.1049 0.474421 10.2055 0.444756 10.3178C0.415091 10.4301 0.420308 10.5487 0.459713 10.658L0.475785 10.7044C0.798999 11.6044 1.27757 12.4348 1.899 13.1669L1.93114 13.2044C2.00624 13.2927 2.10633 13.3562 2.21822 13.3865C2.33011 13.4167 2.44855 13.4124 2.55793 13.374L4.02043 12.8544C4.55257 13.2919 5.14721 13.6383 5.78828 13.8794L6.07043 15.4044C6.09158 15.5186 6.14698 15.6237 6.22927 15.7057C6.31156 15.7876 6.41685 15.8426 6.53114 15.8633L6.57936 15.8723C7.51826 16.041 8.47974 16.041 9.41864 15.8723L9.46686 15.8633C9.58115 15.8426 9.68643 15.7876 9.76872 15.7057C9.85102 15.6237 9.90642 15.5186 9.92757 15.4044L10.2079 13.8865C10.8541 13.6443 11.4557 13.2968 11.9883 12.858L13.4401 13.374C13.5494 13.4127 13.6679 13.4172 13.7799 13.3869C13.8919 13.3566 13.9919 13.2929 14.0669 13.2044L14.099 13.1669C14.7204 12.433 15.199 11.6044 15.5222 10.7044L15.5383 10.658C15.6186 10.4383 15.5526 10.1883 15.3722 10.033ZM12.9347 7.1794C12.9794 7.44905 13.0026 7.72583 13.0026 8.00262C13.0026 8.2794 12.9794 8.55619 12.9347 8.82583L12.8169 9.5419L14.1508 10.683C13.9486 11.1488 13.6933 11.5899 13.3901 11.9973L11.7329 11.4098L11.1722 11.8705C10.7454 12.2205 10.2704 12.4955 9.75614 12.6883L9.07578 12.9437L8.75614 14.6758C8.2518 14.733 7.74262 14.733 7.23828 14.6758L6.91864 12.9401L6.24364 12.6812C5.73471 12.4883 5.2615 12.2133 4.83828 11.8651L4.27757 11.4026L2.60971 11.9955C2.30614 11.5865 2.05257 11.1455 1.849 10.6812L3.19721 9.5294L3.08114 8.81512C3.03828 8.54905 3.01507 8.27405 3.01507 8.00262C3.01507 7.7294 3.0365 7.45619 3.08114 7.19012L3.19721 6.47583L1.849 5.32405C2.05078 4.85798 2.30614 4.41869 2.60971 4.00976L4.27757 4.60262L4.83828 4.14012C5.2615 3.7919 5.73471 3.5169 6.24364 3.32405L6.92043 3.06869L7.24007 1.33297C7.74186 1.27583 8.25436 1.27583 8.75793 1.33297L9.07757 3.06512L9.75793 3.32047C10.2704 3.51333 10.7472 3.78833 11.174 4.13833L11.7347 4.59905L13.3919 4.01155C13.6954 4.42047 13.949 4.86155 14.1526 5.32583L12.8186 6.4669L12.9347 7.1794ZM8.00078 4.68119C6.26507 4.68119 4.85793 6.08833 4.85793 7.82405C4.85793 9.55976 6.26507 10.9669 8.00078 10.9669C9.7365 10.9669 11.1436 9.55976 11.1436 7.82405C11.1436 6.08833 9.7365 4.68119 8.00078 4.68119ZM9.41507 9.23833C9.22957 9.42436 9.00913 9.57188 8.76641 9.6724C8.52369 9.77292 8.26349 9.82446 8.00078 9.82405C7.46686 9.82405 6.96507 9.61512 6.5865 9.23833C6.40047 9.05284 6.25295 8.83239 6.15243 8.58967C6.05191 8.34695 6.00038 8.08675 6.00078 7.82405C6.00078 7.29012 6.20971 6.78833 6.5865 6.40976C6.96507 6.03119 7.46686 5.82405 8.00078 5.82405C8.53471 5.82405 9.0365 6.03119 9.41507 6.40976C9.6011 6.59526 9.74862 6.81571 9.84914 7.05842C9.94966 7.30114 10.0012 7.56134 10.0008 7.82405C10.0008 8.35798 9.79186 8.85976 9.41507 9.23833Z" fill="white"/>
</g>
<defs>
<clipPath id="clip0_801_17480">
<rect width="16" height="16" fill="white"/>
</clipPath>
</defs>
</svg>
