<svg width="16" height="16" viewBox="0 0 16 16" fill="none" xmlns="http://www.w3.org/2000/svg">
<g clip-path="url(#clip0_801_17468)">
<path d="M15.3714 5.74503C14.9698 4.79451 14.3877 3.93093 13.6571 3.20217C12.9284 2.47165 12.0648 1.88946 11.1143 1.48789C10.1268 1.07003 9.08036 0.859314 8 0.859314C6.91964 0.859314 5.87321 1.07003 4.88571 1.48789C3.93519 1.88946 3.07162 2.47165 2.34286 3.20217C1.61234 3.93093 1.03015 4.79451 0.628571 5.74503C0.210714 6.73253 0 7.77896 0 8.85931C0 11.229 1.04107 13.4611 2.85536 14.9861L2.88571 15.0111C2.98929 15.0968 3.11964 15.145 3.25357 15.145H12.7482C12.8821 15.145 13.0125 15.0968 13.1161 15.0111L13.1464 14.9861C14.9589 13.4611 16 11.229 16 8.85931C16 7.77896 15.7875 6.73253 15.3714 5.74503ZM12.4536 13.7879H3.54643C2.85642 13.1657 2.30494 12.4054 1.92778 11.5564C1.55062 10.7073 1.3562 9.78839 1.35714 8.85931C1.35714 7.08431 2.04821 5.41646 3.30357 4.16289C4.55893 2.90753 6.22679 2.21646 8 2.21646C9.775 2.21646 11.4429 2.90753 12.6964 4.16289C13.9518 5.41824 14.6429 7.0861 14.6429 8.85931C14.6429 10.745 13.8482 12.529 12.4536 13.7879ZM9.99107 6.3861C9.96422 6.35951 9.92796 6.3446 9.89018 6.3446C9.85239 6.3446 9.81614 6.35951 9.78929 6.3861L8.28036 7.89503C7.94643 7.80574 7.57679 7.89146 7.31429 8.15396C7.22131 8.24676 7.14755 8.35698 7.09722 8.47832C7.04689 8.59966 7.02099 8.72974 7.02099 8.8611C7.02099 8.99246 7.04689 9.12254 7.09722 9.24388C7.14755 9.36522 7.22131 9.47544 7.31429 9.56824C7.40709 9.66122 7.51731 9.73498 7.63865 9.78531C7.75999 9.83564 7.89007 9.86154 8.02143 9.86154C8.15279 9.86154 8.28287 9.83564 8.40421 9.78531C8.52555 9.73498 8.63577 9.66122 8.72857 9.56824C8.85294 9.44425 8.94237 9.28963 8.98784 9.12C9.0333 8.95037 9.03319 8.77174 8.9875 8.60217L10.4964 7.09324C10.5518 7.03789 10.5518 6.94681 10.4964 6.89146L9.99107 6.3861ZM7.60714 4.5736H8.39286C8.47143 4.5736 8.53572 4.50931 8.53572 4.43074V3.00217C8.53572 2.9236 8.47143 2.85931 8.39286 2.85931H7.60714C7.52857 2.85931 7.46429 2.9236 7.46429 3.00217V4.43074C7.46429 4.50931 7.52857 4.5736 7.60714 4.5736ZM12.25 8.46646V9.25217C12.25 9.33074 12.3143 9.39503 12.3929 9.39503H13.8214C13.9 9.39503 13.9643 9.33074 13.9643 9.25217V8.46646C13.9643 8.38789 13.9 8.3236 13.8214 8.3236H12.3929C12.3143 8.3236 12.25 8.38789 12.25 8.46646ZM12.4768 4.94503L11.9214 4.38967C11.8946 4.36309 11.8583 4.34817 11.8205 4.34817C11.7828 4.34817 11.7465 4.36309 11.7196 4.38967L10.7089 5.40039C10.6823 5.42724 10.6674 5.46349 10.6674 5.50128C10.6674 5.53906 10.6823 5.57532 10.7089 5.60217L11.2643 6.15753C11.3196 6.21289 11.4107 6.21289 11.4661 6.15753L12.4768 5.14681C12.5321 5.09146 12.5321 5.00039 12.4768 4.94503ZM4.2875 4.38967C4.26065 4.36309 4.22439 4.34817 4.18661 4.34817C4.14882 4.34817 4.11256 4.36309 4.08571 4.38967L3.53036 4.94503C3.50377 4.97188 3.48886 5.00814 3.48886 5.04592C3.48886 5.08371 3.50377 5.11997 3.53036 5.14681L4.54107 6.15753C4.59643 6.21289 4.6875 6.21289 4.74286 6.15753L5.29821 5.60217C5.35357 5.54681 5.35357 5.45574 5.29821 5.40039L4.2875 4.38967ZM3.53571 8.3236H2.10714C2.02857 8.3236 1.96429 8.38789 1.96429 8.46646V9.25217C1.96429 9.33074 2.02857 9.39503 2.10714 9.39503H3.53571C3.61429 9.39503 3.67857 9.33074 3.67857 9.25217V8.46646C3.67857 8.38789 3.61429 8.3236 3.53571 8.3236Z" fill="white"/>
</g>
<defs>
<clipPath id="clip0_801_17468">
<rect width="16" height="16" fill="white"/>
</clipPath>
</defs>
</svg>
