<svg width="16" height="16" viewBox="0 0 16 16" fill="none" xmlns="http://www.w3.org/2000/svg">
<path d="M14.187 12.4907C13.8501 11.6928 13.3613 10.968 12.7477 10.3568C12.136 9.74374 11.4113 9.25498 10.6138 8.91747C10.6066 8.9139 10.5995 8.91212 10.5923 8.90854C11.7048 8.10497 12.4281 6.79604 12.4281 5.31926C12.4281 2.87283 10.4459 0.890686 7.99949 0.890686C5.55306 0.890686 3.57092 2.87283 3.57092 5.31926C3.57092 6.79604 4.29413 8.10497 5.40663 8.91033C5.39949 8.9139 5.39234 8.91569 5.3852 8.91926C4.5852 9.25676 3.86734 9.74069 3.25127 10.3585C2.63825 10.9703 2.14949 11.6949 1.81199 12.4925C1.48042 13.2733 1.3016 14.1104 1.2852 14.9585C1.28472 14.9776 1.28807 14.9966 1.29503 15.0143C1.302 15.0321 1.31245 15.0482 1.32576 15.0619C1.33907 15.0755 1.35498 15.0864 1.37255 15.0938C1.39012 15.1012 1.40899 15.105 1.42806 15.105H2.49949C2.57806 15.105 2.64056 15.0425 2.64234 14.9657C2.67806 13.5871 3.23163 12.296 4.2102 11.3175C5.2227 10.305 6.56734 9.74783 7.99949 9.74783C9.43163 9.74783 10.7763 10.305 11.7888 11.3175C12.7673 12.296 13.3209 13.5871 13.3566 14.9657C13.3584 15.0443 13.4209 15.105 13.4995 15.105H14.5709C14.59 15.105 14.6089 15.1012 14.6264 15.0938C14.644 15.0864 14.6599 15.0755 14.6732 15.0619C14.6865 15.0482 14.697 15.0321 14.7039 15.0143C14.7109 14.9966 14.7142 14.9776 14.7138 14.9585C14.6959 14.105 14.5191 13.2746 14.187 12.4907ZM7.99949 8.39069C7.17984 8.39069 6.40842 8.07104 5.82806 7.49069C5.2477 6.91033 4.92806 6.1389 4.92806 5.31926C4.92806 4.49962 5.2477 3.72819 5.82806 3.14783C6.40842 2.56747 7.17984 2.24783 7.99949 2.24783C8.81913 2.24783 9.59056 2.56747 10.1709 3.14783C10.7513 3.72819 11.0709 4.49962 11.0709 5.31926C11.0709 6.1389 10.7513 6.91033 10.1709 7.49069C9.59056 8.07104 8.81913 8.39069 7.99949 8.39069Z" fill="white"/>
</svg>
