<svg width="14" height="14" viewBox="0 0 14 14" fill="none" xmlns="http://www.w3.org/2000/svg">
<path d="M6.14397 0.429657H0.715402C0.558259 0.429657 0.429688 0.558228 0.429688 0.715371V6.14394C0.429688 6.30109 0.558259 6.42966 0.715402 6.42966H6.14397C6.30112 6.42966 6.42969 6.30109 6.42969 6.14394V0.715371C6.42969 0.558228 6.30112 0.429657 6.14397 0.429657ZM5.2154 5.21537H1.64397V1.64394H5.2154V5.21537ZM13.2868 0.429657H7.85826C7.70112 0.429657 7.57255 0.558228 7.57255 0.715371V6.14394C7.57255 6.30109 7.70112 6.42966 7.85826 6.42966H13.2868C13.444 6.42966 13.5725 6.30109 13.5725 6.14394V0.715371C13.5725 0.558228 13.444 0.429657 13.2868 0.429657ZM12.3583 5.21537H8.78683V1.64394H12.3583V5.21537ZM6.14397 7.57252H0.715402C0.558259 7.57252 0.429688 7.70109 0.429688 7.85823V13.2868C0.429688 13.4439 0.558259 13.5725 0.715402 13.5725H6.14397C6.30112 13.5725 6.42969 13.4439 6.42969 13.2868V7.85823C6.42969 7.70109 6.30112 7.57252 6.14397 7.57252ZM5.2154 12.3582H1.64397V8.7868H5.2154V12.3582ZM13.2868 7.57252H7.85826C7.70112 7.57252 7.57255 7.70109 7.57255 7.85823V13.2868C7.57255 13.4439 7.70112 13.5725 7.85826 13.5725H13.2868C13.444 13.5725 13.5725 13.4439 13.5725 13.2868V7.85823C13.5725 7.70109 13.444 7.57252 13.2868 7.57252ZM12.3583 12.3582H8.78683V8.7868H12.3583V12.3582Z" fill="white"/>
</svg>
