<svg width="16" height="16" viewBox="0 0 16 16" fill="none" xmlns="http://www.w3.org/2000/svg">
<path d="M14.716 13.0005H2.43025V1.85767C2.43025 1.7791 2.36596 1.71481 2.28739 1.71481H1.28739C1.20882 1.71481 1.14453 1.7791 1.14453 1.85767V14.1434C1.14453 14.222 1.20882 14.2862 1.28739 14.2862H14.716C14.7945 14.2862 14.8588 14.222 14.8588 14.1434V13.1434C14.8588 13.0648 14.7945 13.0005 14.716 13.0005ZM4.31953 10.2452C4.37489 10.3005 4.46417 10.3005 4.52132 10.2452L6.99096 7.78803L9.26953 10.0809C9.32489 10.1362 9.41596 10.1362 9.47132 10.0809L14.3892 5.16481C14.4445 5.10946 14.4445 5.01838 14.3892 4.96303L13.682 4.25588C13.6552 4.2293 13.6189 4.21438 13.5811 4.21438C13.5434 4.21438 13.5071 4.2293 13.4802 4.25588L9.3731 8.36124L7.0981 6.07196C7.07125 6.04537 7.035 6.03046 6.99721 6.03046C6.95943 6.03046 6.92317 6.04537 6.89632 6.07196L3.61417 9.33446C3.58759 9.36131 3.57267 9.39756 3.57267 9.43535C3.57267 9.47313 3.58759 9.50939 3.61417 9.53624L4.31953 10.2452Z" fill="white"/>
</svg>
