<svg width="16" height="16" viewBox="0 0 20 20" fill="white" xmlns="http://www.w3.org/2000/svg">
<path fill-rule="evenodd" clip-rule="evenodd" d="M4.89994 0.833313C2.59876 0.833313 0.733276 2.69879 0.733276 4.99998C0.733276 7.30117 2.59876 9.16665 4.89994 9.16665C7.20113 9.16665 9.06661 7.30117 9.06661 4.99998C9.06661 2.69879 7.20113 0.833313 4.89994 0.833313Z" />
<path fill-rule="evenodd" clip-rule="evenodd" d="M4.89994 10.8333C2.59876 10.8333 0.733276 12.6988 0.733276 15C0.733276 17.3012 2.59876 19.1666 4.89994 19.1666C7.20113 19.1666 9.06661 17.3012 9.06661 15C9.06661 12.6988 7.20113 10.8333 4.89994 10.8333Z" />
<path fill-rule="evenodd" clip-rule="evenodd" d="M14.8999 0.833313C12.5988 0.833313 10.7333 2.69879 10.7333 4.99998C10.7333 7.30117 12.5988 9.16665 14.8999 9.16665C17.2011 9.16665 19.0666 7.30117 19.0666 4.99998C19.0666 2.69879 17.2011 0.833313 14.8999 0.833313Z" />
<path fill-rule="evenodd" clip-rule="evenodd" d="M14.8999 10.8333C12.5988 10.8333 10.7333 12.6988 10.7333 15C10.7333 17.3012 12.5988 19.1666 14.8999 19.1666C17.2011 19.1666 19.0666 17.3012 19.0666 15C19.0666 12.6988 17.2011 10.8333 14.8999 10.8333Z" />
</svg>
