<svg width="16" height="16" viewBox="0 0 21 20" fill="white" xmlns="http://www.w3.org/2000/svg">
<path fill-rule="evenodd" clip-rule="evenodd" d="M2.16198 9.31583C1.72066 9.89364 1.6761 10.5606 1.75709 11.2213C1.83379 11.8469 2.04484 12.6206 2.29432 13.5352L2.31098 13.5963L2.9928 16.0963L3.00481 16.1403C3.15559 16.6933 3.2874 17.1768 3.44252 17.5608C3.61003 17.9756 3.83576 18.3583 4.22218 18.6534C4.60859 18.9486 5.03715 19.0657 5.4814 19.1181C5.89276 19.1667 6.39384 19.1667 6.96702 19.1667L7.01265 19.1667H13.5873L13.633 19.1667C14.2062 19.1667 14.7072 19.1667 15.1186 19.1181C15.5629 19.0657 15.9914 18.9486 16.3778 18.6534C16.7642 18.3583 16.99 17.9756 17.1575 17.5608C17.3126 17.1767 17.4444 16.6933 17.5952 16.1403L17.6072 16.0963L18.289 13.5963L18.3057 13.5352L18.3057 13.5352C18.5552 12.6206 18.7662 11.8469 18.8429 11.2213C18.9239 10.5606 18.8793 9.89364 18.438 9.31583C17.9967 8.73803 17.3649 8.51954 16.7062 8.42385C16.0825 8.33323 15.2805 8.33327 14.3325 8.33331L14.2692 8.33332H6.33083L6.2675 8.33331C5.31951 8.33327 4.51752 8.33323 3.89377 8.42385C3.23506 8.51954 2.60331 8.73803 2.16198 9.31583Z" />
<path fill-rule="evenodd" clip-rule="evenodd" d="M6.00671 4.16663C6.02673 4.16664 6.04705 4.16664 6.06768 4.16664H14.5323C14.553 4.16664 14.5733 4.16664 14.5933 4.16663C14.971 4.16655 15.242 4.16648 15.4817 4.19864C17.1313 4.41995 18.4127 5.73867 18.6265 7.39321L16.9735 7.60675C16.8539 6.6808 16.1427 5.96893 15.2601 5.85051C15.1458 5.83518 14.9961 5.83331 14.5323 5.83331H6.06768C5.6039 5.83331 5.45423 5.83518 5.33994 5.85051C4.45729 5.96893 3.7461 6.6808 3.62647 7.60675L1.97354 7.39321C2.18729 5.73867 3.46873 4.41995 5.11832 4.19864C5.35803 4.16648 5.62904 4.16655 6.00671 4.16663Z" />
<path fill-rule="evenodd" clip-rule="evenodd" d="M2.86157 3.01893C3.40371 1.68807 4.82607 0.833313 6.38522 0.833313H14.2148C15.7739 0.833313 17.1963 1.68807 17.7384 3.01893L16.1949 3.64769C15.9471 3.03949 15.2051 2.49998 14.2148 2.49998H6.38522C5.39487 2.49998 4.65284 3.03949 4.40509 3.64769L2.86157 3.01893Z" />
</svg>
