<svg width="16" height="16" viewBox="0 0 19 20" fill="white" xmlns="http://www.w3.org/2000/svg">
<path fill-rule="evenodd" clip-rule="evenodd" d="M7.9723 0.833314H8.03327H11.3666H11.4276H11.4276H11.4276C12.9471 0.833292 14.1719 0.833274 15.1352 0.962785C16.1353 1.09725 16.9774 1.38491 17.6462 2.0537C18.315 2.7225 18.6027 3.56458 18.7371 4.5647C18.8666 5.528 18.8666 6.75281 18.8666 8.27237V8.33332V11.6667V11.7276C18.8666 13.2472 18.8666 14.472 18.7371 15.4353C18.6027 16.4354 18.315 17.2775 17.6462 17.9463C16.9774 18.6151 16.1353 18.9027 15.1352 19.0372C14.1719 19.1667 12.9471 19.1667 11.4276 19.1666H11.3666H8.03327H7.97232C6.45276 19.1667 5.22796 19.1667 4.26465 19.0372C3.26453 18.9027 2.42245 18.6151 1.75366 17.9463C1.08486 17.2775 0.797199 16.4354 0.662736 15.4353C0.533225 14.472 0.533243 13.2472 0.533265 11.7277V11.7276V11.7276V11.6667V8.33332V8.27234V8.27233V8.27231C0.533243 6.75278 0.533225 5.52799 0.662736 4.5647C0.797199 3.56458 1.08486 2.7225 1.75366 2.0537C2.42245 1.38491 3.26453 1.09725 4.26465 0.962785C5.22794 0.833274 6.45273 0.833292 7.97226 0.833314H7.97228H7.9723ZM13.4281 10.572L15.4235 7.0801L13.9764 6.2532L11.981 9.74512C11.6737 10.283 10.9077 10.3094 10.5641 9.79392L10.2225 9.28154C9.19163 7.73521 6.89383 7.81435 5.97178 9.42794L3.9764 12.9199L5.42347 13.7468L7.41885 10.2548C7.7262 9.71698 8.49213 9.6906 8.83576 10.206L9.17735 10.7184C10.2082 12.2648 12.506 12.1856 13.4281 10.572Z" />
</svg>
