<svg width="16" height="16" viewBox="0 0 21 20" fill="white" xmlns="http://www.w3.org/2000/svg">
<g clip-path="url(#clip0_2001_1131)">
<path fill-rule="evenodd" clip-rule="evenodd" d="M8.85002 2.49998C5.39824 2.49998 2.60002 5.2982 2.60002 8.74998C2.60002 12.2018 5.39824 15 8.85002 15C12.3018 15 15.1 12.2018 15.1 8.74998C15.1 5.2982 12.3018 2.49998 8.85002 2.49998ZM0.93335 8.74998C0.93335 4.37773 4.47776 0.833313 8.85002 0.833313C13.2223 0.833313 16.7667 4.37773 16.7667 8.74998C16.7667 13.1222 13.2223 16.6666 8.85002 16.6666C4.47776 16.6666 0.93335 13.1222 0.93335 8.74998Z" />
<path d="M14.2667 8.74998C14.2667 11.7415 11.8416 14.1666 8.85002 14.1666C5.85847 14.1666 3.43335 11.7415 3.43335 8.74998C3.43335 5.75844 5.85847 3.33331 8.85002 3.33331C11.8416 3.33331 14.2667 5.75844 14.2667 8.74998Z" />
<path fill-rule="evenodd" clip-rule="evenodd" d="M14.8559 13.5774L19.0226 17.7441L17.8441 18.9226L13.6774 14.7559L14.8559 13.5774Z" />
</g>
<defs>
<clipPath id="clip0_2001_1131">
<rect width="20" height="20"  transform="translate(0.100006)"/>
</clipPath>
</defs>
</svg>
