<svg width="16" height="16" viewBox="0 0 19 20" fill="white" xmlns="http://www.w3.org/2000/svg">
<path fill-rule="evenodd" clip-rule="evenodd" d="M9.49998 0.833313C7.10923 0.833313 5.33331 2.98033 5.33331 5.41665C5.33331 7.85297 7.10923 9.99998 9.49998 9.99998C11.8907 9.99998 13.6666 7.85297 13.6666 5.41665C13.6666 2.98033 11.8907 0.833313 9.49998 0.833313Z"/>
<path fill-rule="evenodd" clip-rule="evenodd" d="M7.13887 11.6666C4.69076 11.6666 2.38551 12.8192 0.916646 14.7777L0.87498 14.8333C0.523378 15.3021 0.333313 15.8723 0.333313 16.4583C0.333313 17.9541 1.54588 19.1666 3.04165 19.1666H15.9583C17.4541 19.1666 18.6666 17.9541 18.6666 16.4583C18.6666 15.8723 18.4766 15.3021 18.125 14.8333L18.0833 14.7777C16.6144 12.8192 14.3092 11.6666 11.8611 11.6666H7.13887Z" />
</svg>
