<svg width="24" height="24" viewBox="0 0 24 24" fill="none" xmlns="http://www.w3.org/2000/svg">
<path d="M22.8478 3.93947L17.5121 4.58233C17.3353 4.60376 17.2603 4.82072 17.3862 4.94661L18.9746 6.53501L12.921 12.5886L10.1942 9.86447C10.0255 9.69572 9.75495 9.6984 9.58888 9.86447L0.971918 18.4841C0.932039 18.5244 0.909668 18.5788 0.909668 18.6355C0.909668 18.6921 0.932039 18.7465 0.971918 18.7868L2.17728 19.9975C2.26031 20.0805 2.39692 20.0805 2.47995 19.9975L9.89156 12.5886L12.6157 15.3127C12.7844 15.4788 13.055 15.4788 13.221 15.3127L20.4907 8.0484L22.0791 9.63679C22.1075 9.66512 22.1434 9.68488 22.1825 9.69385C22.2217 9.70281 22.2625 9.70061 22.3005 9.68749C22.3384 9.67437 22.3719 9.65087 22.3972 9.61965C22.4225 9.58843 22.4384 9.55075 22.4433 9.5109L23.0862 4.17518C23.105 4.03858 22.9871 3.92072 22.8478 3.93947Z" fill="white"/>
</svg>
