<svg width="24" height="24" viewBox="0 0 24 24" fill="none" xmlns="http://www.w3.org/2000/svg">
<path d="M20.6271 10.8572C20.107 9.68684 19.3511 8.63636 18.4065 7.77151L17.6271 7.05633C17.6006 7.03271 17.5687 7.01595 17.5343 7.00752C17.4998 6.99909 17.4638 6.99924 17.4294 7.00797C17.3951 7.0167 17.3634 7.03373 17.3371 7.05757C17.3108 7.08142 17.2908 7.11134 17.2788 7.14472L16.9306 8.14383C16.7137 8.77062 16.3146 9.4108 15.7494 10.0403C15.7119 10.0804 15.669 10.0912 15.6396 10.0938C15.6101 10.0965 15.5646 10.0912 15.5244 10.0537C15.4869 10.0215 15.4681 9.97329 15.4708 9.92508C15.5699 8.31258 15.0878 6.49383 14.0324 4.51437C13.1592 2.86972 11.9458 1.58669 10.4297 0.692044L9.32348 0.0411513C9.17884 -0.044563 8.99402 0.0679369 9.00205 0.236687L9.06098 1.5224C9.10116 2.40097 8.99937 3.17776 8.7583 3.82329C8.46366 4.61347 8.04044 5.3474 7.49937 6.00633C7.12283 6.46427 6.69604 6.87847 6.22705 7.24115C5.09751 8.10945 4.17905 9.22204 3.54044 10.4956C2.90341 11.7803 2.57158 13.1947 2.5708 14.6287C2.5708 15.8929 2.81991 17.117 3.31277 18.2715C3.78866 19.383 4.47542 20.3918 5.33509 21.242C6.20294 22.0992 7.21009 22.7742 8.33241 23.2429C9.49491 23.7304 10.7271 23.9769 11.9994 23.9769C13.2717 23.9769 14.5038 23.7304 15.6663 23.2456C16.7859 22.7796 17.804 22.1 18.6637 21.2447C19.5315 20.3876 20.2119 19.3858 20.686 18.2742C21.1781 17.1229 21.4305 15.8834 21.4279 14.6313C21.4279 13.3242 21.1601 12.0545 20.6271 10.8572ZM17.3833 19.9456C15.9449 21.3706 14.0351 22.1528 11.9994 22.1528C9.96366 22.1528 8.05384 21.3706 6.61544 19.9456C5.18241 18.5233 4.39223 16.6376 4.39223 14.6313C4.39223 13.4662 4.65473 12.3492 5.17169 11.3099C5.67527 10.2947 6.42527 9.38669 7.33598 8.68758C7.9168 8.24345 8.4436 7.73283 8.90562 7.16615C9.57527 6.34919 10.1003 5.43847 10.4646 4.46079C10.614 4.0575 10.7226 3.64023 10.7887 3.21526C11.4342 3.8099 11.9753 4.52776 12.4279 5.36883C13.3226 7.04562 13.7351 8.53758 13.6547 9.80722C13.6355 10.1062 13.6844 10.4057 13.7976 10.6832C13.9108 10.9606 14.0854 11.2088 14.3083 11.409C14.5015 11.5835 14.7274 11.7179 14.9729 11.8043C15.2185 11.8908 15.4788 11.9276 15.7387 11.9126C16.2663 11.8858 16.7512 11.6528 17.1047 11.259C17.461 10.8599 17.769 10.4528 18.0262 10.0376C18.4012 10.517 18.7146 11.0394 18.9637 11.6019C19.3896 12.5608 19.6065 13.5813 19.6065 14.6313C19.6065 16.6376 18.8163 18.526 17.3833 19.9456Z" fill="white"/>
</svg>
