<svg width="62" height="62" viewBox="0 0 62 62" fill="none" xmlns="http://www.w3.org/2000/svg">
<g filter="url(#filter0_b_914_35961)">
<path d="M0 10C0 4.47715 4.47715 0 10 0H52C57.5228 0 62 4.47715 62 10V52C62 57.5228 57.5228 62 52 62H10C4.47715 62 0 57.5228 0 52V10Z" fill="url(#paint0_linear_914_35961)"/>
<path d="M0.25 10C0.25 4.61523 4.61522 0.25 10 0.25H52C57.3848 0.25 61.75 4.61522 61.75 10V52C61.75 57.3848 57.3848 61.75 52 61.75H10C4.61523 61.75 0.25 57.3848 0.25 52V10Z" stroke="url(#paint1_radial_914_35961)" stroke-width="0.5"/>
<path d="M39.3529 37.1045C39.2692 37.062 38.6152 36.6745 37.6432 36.6745C36.3294 36.6745 35.4179 37.5885 35.4179 38.8225C35.4179 40.0192 36.2901 40.9725 37.6432 40.9725C38.5984 40.9725 39.2634 40.5927 39.3529 40.5451V42.7067C39.098 42.7775 38.4034 42.9931 37.5009 42.9931C35.2151 42.9931 33.2086 41.4173 33.2086 38.8219C33.2086 36.4176 35.0239 34.6538 37.5009 34.6538C38.4536 34.6538 39.1604 34.8856 39.3529 34.9429V37.1045ZM18.1407 37.1045C18.0589 37.062 17.4056 36.6745 16.4335 36.6745C15.1172 36.6745 14.2063 37.5885 14.2063 38.8225C14.2063 40.0192 15.0792 40.9725 16.4335 40.9725C17.3888 40.9725 18.0531 40.5927 18.1407 40.5451V42.7067C17.8883 42.7775 17.1944 42.9931 16.2868 42.9931C14.0029 42.9931 11.999 41.4173 11.999 38.8219C11.999 36.4176 13.8143 34.6538 16.2874 34.6538C17.244 34.6538 17.9495 34.8856 18.1407 34.9429V37.1045ZM45.7456 36.7047C44.5399 36.7047 43.6445 37.6535 43.6445 38.8225C43.6445 39.9941 44.5399 40.9423 45.7456 40.9423C46.9499 40.9423 47.8479 39.9941 47.8479 38.8225C47.8479 37.6535 46.9499 36.7047 45.7456 36.7047ZM50.0011 38.8225C50.0011 41.1264 48.2226 42.9931 45.7462 42.9931C43.2686 42.9931 41.4926 41.1264 41.4926 38.8219C41.4926 36.5226 43.2692 34.6538 45.7456 34.6538C48.2226 34.6538 50.0011 36.5225 50.0011 38.8225ZM30.6731 36.6275C30.6428 36.6178 29.7873 36.3816 29.0844 36.3816C28.2701 36.3816 27.8272 36.6545 27.8272 37.0414C27.8272 37.5319 28.4246 37.7031 28.7587 37.8087L29.3193 37.987C30.639 38.4067 31.2395 39.3098 31.2395 40.2908C31.2395 42.314 29.4603 42.9938 27.9051 42.9938C26.8243 42.9938 25.8118 42.7942 25.712 42.7736V40.9197C25.8909 40.9648 26.7432 41.2197 27.6309 41.2197C28.6422 41.2197 29.1069 40.9236 29.1069 40.4679C29.1069 40.0598 28.7046 39.8241 28.2006 39.6658C28.0783 39.6246 27.8929 39.5666 27.7667 39.5254C26.6351 39.1675 25.6914 38.502 25.6914 37.1695C25.6914 35.6632 26.8192 34.6519 28.6924 34.6519C29.6818 34.6519 30.6126 34.892 30.6731 34.9081V36.6268V36.6275Z" fill="white"/>
<path d="M9.84421 26.142C9.84421 25.5871 9.39103 25.1371 8.83551 25.1371C8.27999 25.1371 7.82617 25.5871 7.82617 26.1413V28.2559C7.83282 28.5191 7.94205 28.7693 8.13055 28.9531C8.31905 29.1369 8.57191 29.2398 8.83519 29.2398C9.09847 29.2398 9.35133 29.1369 9.53983 28.9531C9.72833 28.7693 9.83756 28.5191 9.84421 28.2559V26.142ZM15.3859 23.3676C15.3859 23.1 15.2796 22.8433 15.0904 22.6541C14.9012 22.4649 14.6445 22.3586 14.3769 22.3586C14.1093 22.3586 13.8526 22.4649 13.6634 22.6541C13.4742 22.8433 13.3679 23.1 13.3679 23.3676V28.2559C13.3679 28.5235 13.4742 28.7802 13.6634 28.9694C13.8526 29.1587 14.1093 29.265 14.3769 29.265C14.6445 29.265 14.9012 29.1587 15.0904 28.9694C15.2796 28.7802 15.3859 28.5235 15.3859 28.2559V23.3669V23.3676ZM20.9283 19.571C20.9283 19.0161 20.4751 18.5655 19.9196 18.5655C19.3634 18.5655 18.9102 19.0161 18.9102 19.571V30.2649C18.9169 30.5281 19.0261 30.7783 19.2146 30.9621C19.4031 31.1459 19.656 31.2488 19.9192 31.2488C20.1825 31.2488 20.4354 31.1459 20.6239 30.9621C20.8124 30.7783 20.9216 30.5281 20.9283 30.2649V19.571ZM26.47 23.3676C26.47 23.1 26.3637 22.8433 26.1744 22.6541C25.9852 22.4649 25.7286 22.3586 25.461 22.3586C25.1933 22.3586 24.9367 22.4649 24.7475 22.6541C24.5582 22.8433 24.4519 23.1 24.4519 23.3676V28.2559C24.4519 28.5235 24.5582 28.7802 24.7475 28.9694C24.9367 29.1587 25.1933 29.265 25.461 29.265C25.7286 29.265 25.9852 29.1587 26.1744 28.9694C26.3637 28.7802 26.47 28.5235 26.47 28.2559V23.3669V23.3676ZM32.0059 26.142C32.0061 25.8758 31.9005 25.6204 31.7124 25.432C31.5244 25.2435 31.2692 25.1375 31.003 25.1371C30.7362 25.137 30.4802 25.2426 30.2911 25.4308C30.1021 25.6191 29.9953 25.8745 29.9943 26.1413V28.2559C29.9943 28.5227 30.1003 28.7785 30.2889 28.9671C30.4775 29.1558 30.7333 29.2617 31.0001 29.2617C31.2668 29.2617 31.5227 29.1558 31.7113 28.9671C31.8999 28.7785 32.0059 28.5227 32.0059 28.2559V26.142ZM37.5502 23.3676C37.5435 23.1053 37.4347 22.8559 37.2468 22.6727C37.0589 22.4895 36.8068 22.3869 36.5444 22.3869C36.2819 22.3869 36.0299 22.4895 35.842 22.6727C35.6541 22.8559 35.5452 23.1053 35.5386 23.3676V28.2559C35.5386 28.5227 35.6445 28.7785 35.8332 28.9671C36.0218 29.1558 36.2776 29.2617 36.5444 29.2617C36.8111 29.2617 37.0669 29.1558 37.2556 28.9671C37.4442 28.7785 37.5502 28.5227 37.5502 28.2559V23.3669V23.3676ZM43.0957 19.571C43.0957 19.3042 42.9898 19.0484 42.8011 18.8598C42.6125 18.6712 42.3567 18.5652 42.0899 18.5652C41.8232 18.5652 41.5673 18.6712 41.3787 18.8598C41.1901 19.0484 41.0841 19.3042 41.0841 19.571V30.2649C41.0782 30.4007 41.0998 30.5363 41.1477 30.6635C41.1955 30.7907 41.2686 30.907 41.3626 31.0051C41.4566 31.1033 41.5695 31.1815 41.6945 31.2349C41.8195 31.2883 41.954 31.3158 42.0899 31.3158C42.2259 31.3158 42.3604 31.2883 42.4854 31.2349C42.6104 31.1815 42.7233 31.1033 42.8172 31.0051C42.9112 30.907 42.9844 30.7907 43.0322 30.6635C43.0801 30.5363 43.1017 30.4007 43.0957 30.2649V19.571ZM48.64 23.3676C48.64 22.8121 48.1901 22.3608 47.6217 22.3608C47.3549 22.361 47.0992 22.4671 46.9106 22.6557C46.7221 22.8444 46.6162 23.1002 46.6162 23.3669V28.2559C46.6162 28.814 47.0668 29.264 47.6217 29.264C48.1901 29.264 48.64 28.814 48.64 28.2559V23.3669V23.3676ZM54.174 26.142C54.174 25.875 54.0679 25.6189 53.8791 25.4301C53.6903 25.2413 53.4342 25.1352 53.1672 25.1352C52.9002 25.1352 52.6441 25.2413 52.4553 25.4301C52.2665 25.6189 52.1605 25.875 52.1605 26.142V28.2559C52.1605 28.814 52.6117 29.2646 53.1672 29.2646C53.7221 29.2646 54.1734 28.814 54.1734 28.2559V26.142H54.174Z" fill="white"/>
<path d="M22.9687 42.8505H20.9365V34.797H22.9687V42.8505Z" fill="white"/>
</g>
<defs>
<filter id="filter0_b_914_35961" x="-30" y="-30" width="122" height="122" filterUnits="userSpaceOnUse" color-interpolation-filters="sRGB">
<feFlood flood-opacity="0" result="BackgroundImageFix"/>
<feGaussianBlur in="BackgroundImageFix" stdDeviation="15"/>
<feComposite in2="SourceAlpha" operator="in" result="effect1_backgroundBlur_914_35961"/>
<feBlend mode="normal" in="SourceGraphic" in2="effect1_backgroundBlur_914_35961" result="shape"/>
</filter>
<linearGradient id="paint0_linear_914_35961" x1="58" y1="58.5" x2="0" y2="0" gradientUnits="userSpaceOnUse">
<stop stop-color="white" stop-opacity="0.3"/>
<stop offset="1" stop-color="white" stop-opacity="0.1"/>
</linearGradient>
<radialGradient id="paint1_radial_914_35961" cx="0" cy="0" r="1" gradientUnits="userSpaceOnUse" gradientTransform="translate(5 38.5) rotate(-74.0546) scale(40.0406)">
<stop stop-color="white"/>
<stop offset="1" stop-color="white" stop-opacity="0"/>
</radialGradient>
</defs>
</svg>
